A romantic comedy about a family traveling to the French capital for business. The party includes a young engaged couple forced to confront the illusion that a life different from their own is better. 

IMDB rating: 8.0/10 (from 22,074 users)

SOURCE: Midnight.in.Paris.720p.BluRay.x264.RoSubbed-MHD

SAMPLE INCLUDED: 30s/5.3mb


CAST: 

Owen Wilson..................Gil
Rachel McAdams...............Inez
Kurt Fuller..................John
Mimi Kennedy.................Helen
Michael Sheen................Paul
Nina Arianda.................Carol
Carla Bruni..................Museum Guide
Maurice Sonnenberg...........Man at Wine Tasting
Thierry Hancisse.............1920's Partygoer
Guillaume Gouix..............1920's Partygoer
Audrey Fleurot...............1920's Partygoer
Marie-Sohna Conde............1920's Partygoer
Yves Heck....................Cole Porter
Alison Pill..................Zelda Fitzgerald
Corey Stoll..................Ernest Hemingway

General
*******
Format                           : Matroska
File size                        : 999 MiB
Duration                         : 1h 33mn
Overall bit rate                 : 1 486 Kbps
Encoded date                     : UTC 2011-10-11 21:10:29
Writing application              : mkvmerge v5.0.0 ('Die Wahre Liebe') built on Sep 25 2011 20:33:49
Writing library                  : libebml v1.2.2 + libmatroska v1.3.0

Video
*****
ID                               : 1
Format                           : AVC
Format/Info                      : Advanced Video Codec
Format profile                   : Main@L3.0
Format settings, CABAC           : Yes
Format settings, ReFrames        : 4 frames
Muxing mode                      : Container profile=Unknown@3.0
Codec ID                         : V_MPEG4/ISO/AVC
Duration                         : 1h 33mn
Bit rate                         : 1 233 Kbps
Nominal bit rate                 : 1 261 Kbps
Width                            : 720 pixels
Height                           : 384 pixels
Display aspect ratio             : 1.875
Frame rate mode                  : Variable
Frame rate                       : 23.976 fps
Resolution                       : 8 bits
Colorimetry                      : 4:2:0
Scan type                        : Progressive
Bits/(Pixel*Frame)               : 0.186
Stream size                      : 828 MiB (83%)
Writing library                  : x264 core 112

Audio
*****
ID                               : 2
Format                           : AC-3
Format/Info                      : Audio Coding 3
Codec ID                         : A_AC3
Duration                         : 1h 33mn
Bit rate mode                    : Constant
Bit rate                         : 224 Kbps
Channel(s)                       : 2 channels
Channel positions                : Front: L R
Sampling rate                    : 48.0 KHz
Stream size                      : 151 MiB (15%)

Text(subtitles)
***************
ID                               : 3
Format                           : UTF-8
Codec ID                         : S_TEXT/UTF8
Codec ID/Info                    : UTF-8 Plain Text
Language                         : ROMANIAN


PLEASE SEED FOR AS LONG AS POSSIBLE!